# xmcd
#
# Track frame offsets:
# 182
# 20987
# 38317
# 59995
# 84122
# 104147
# 127355
# 147240
# 173915
#
# Disc length: 2426 seconds
#
#
# Revision: 0
# Processed by: cddbd v1.5.2PL0 Copyright (c) Steve Scherf et al.
# Submitted via: FreeRIP 2.951 
#
DISCID=85097809
DTITLE=Dead Weight - Weight of the World
DYEAR=1997
DGENRE=
TTITLE0=Friend Of The Blues
TTITLE1=Blues Are On The Way
TTITLE2=Captain Copper
TTITLE3=Highest Joy
TTITLE4=Where Have All The Liberals Gone?
TTITLE5=Let Me Down With Ease
TTITLE6=Shun De Tion
TTITLE7=Ce Leguere
TTITLE8=Goin' Down To Florida
EXTD=
EXTT0=Written by Dave Martin
EXTT1=Written by Carl Rodenberg
EXTT2=Written by Carl Rodenberg
EXTT3=Written by Dan Davis
EXTT4=Written by Dave Martin
EXTT5=Written by Carl Rodenberg
EXTT6=Written by Dan Davis
EXTT7=Written by Carl Rodenberg
EXTT8=Written by Dan Davis and Dave Martin
PLAYORDER=
